<?xml version="1.0" encoding="UTF-8"?>
<svg id="Layer_2" data-name="Layer 2" xmlns="http://www.w3.org/2000/svg" viewBox="0 0 422.42 522.96">
  <defs>
    <style>
      .cls-1 {
        fill: #fff;
        stroke-width: 0px;
      }
    </style>
  </defs>
  <g id="Layer_2-2" data-name="Layer 2">
    <g>
      <polygon class="cls-1" points="3.42 208.05 3.42 372.66 40.42 372.66 40.42 174.05 3.42 208.05"/>
      <polygon class="cls-1" points="422.42 208.05 422.42 372.66 385.42 372.66 385.42 174.05 422.42 208.05"/>
      <path class="cls-1" d="M214.42.05v48.87l-98.06,98.06v225.68h-35.43v-242.04S211.54-2.84,214.42.05Z"/>
      <path class="cls-1" d="M212.93.05v48.87s98.06,98.06,98.06,98.06v225.68s35.43,0,35.43,0v-242.04S215.82-2.84,212.93.05Z"/>
      <polygon class="cls-1" points="214.42 106.62 214.42 156.05 192.92 177.55 192.92 373.05 158.42 373.05 158.42 162.28 214.42 106.62"/>
      <polygon class="cls-1" points="214.42 106.62 214.42 156.05 235.92 177.55 234.92 373.05 269.42 373.05 270.42 162.28 214.42 106.62"/>
      <g>
        <g>
          <path class="cls-1" d="M41.65,439.98c0,2.56-.28,4.14-1.38,4.14H15.4c-12.09,0-15.4-5.39-15.4-17.27s3.32-17.27,15.4-17.27h16.72v26.25h8.15c1.11,0,1.38,1.59,1.38,4.14ZM14.85,404.54H5.6v-9.39h9.26v9.39ZM22.86,435.83v-17.96h-7.46c-5.46,0-6.15.35-6.15,8.98s.69,8.98,6.15,8.98h7.46ZM28.46,404.54h-9.26v-9.39h9.26v9.39Z"/>
          <path class="cls-1" d="M67.35,439.98c0,2.56-.28,4.14-1.38,4.14h-25.7c-1.1,0-1.38-1.59-1.38-4.14s.28-4.14,1.38-4.14h8.22v-26.25h9.26v26.25h8.22c1.11,0,1.38,1.59,1.38,4.14ZM41.66,448.27h9.26v9.39h-9.26v-9.39ZM55.26,448.27h9.26v9.39h-9.26v-9.39Z"/>
          <path class="cls-1" d="M104.45,409.58v34.54h-38.48c-1.1,0-1.38-1.59-1.38-4.14s.28-4.14,1.38-4.14h7.39c-.76-2.42-1.04-5.39-1.04-8.98,0-11.88,3.32-17.27,15.4-17.27h16.72ZM87.87,404.54h-9.26v-9.39h9.26v9.39ZM87.73,435.83h7.46v-17.96h-7.46c-5.46,0-6.15.35-6.15,8.98s.69,8.98,6.15,8.98ZM101.48,404.54h-9.26v-9.39h9.26v9.39Z"/>
          <path class="cls-1" d="M198.95,439.98c0,2.56-.28,4.14-1.38,4.14h-26.39c-2.56,0-5.04-.76-7.32-2.21-2.21,1.52-5.11,2.21-8.84,2.21h-14.85v-18.58h-16.44v21.48c0,8.5-5.18,14.16-12.64,14.16-1.17,0-2.62-.14-3.87-.28l1.04-8.22c1.45.14,2.28.21,2.83.21,2,0,3.38-1.8,3.38-5.87v-37.44h9.26v7.67h16.44v-7.67h9.26v26.25h5.6c4.14,0,5.04-1.11,5.04-8.98v-13.81h9.26v13.81c0,3.04-.28,5.6-.83,7.81,1.17.97,1.86,1.17,2.69,1.17h8.91v-10.84c0-1.8-.76-7.94-1.8-14.02l9.12-1.38c.83,4.97,1.93,12.64,1.93,15.4v10.84h8.22c1.11,0,1.38,1.59,1.38,4.14ZM162.48,404.54h-9.26v-9.39h9.26v9.39ZM168.9,392.04h-8.43v-8.57h8.43v8.57ZM166.83,395.15h9.26v9.39h-9.26v-9.39Z"/>
          <path class="cls-1" d="M217.12,395.77v48.35h-19.55c-1.1,0-1.38-1.59-1.38-4.14s.28-4.14,1.38-4.14h10.29v-40.06h9.26Z"/>
          <path class="cls-1" d="M228.18,395.77h9.26v48.35h-9.26v-48.35Z"/>
          <path class="cls-1" d="M298.57,435.83v8.29h-36.96v-8.29h6.01c-1.1-2.35-1.59-4.77-1.59-7.32,0-9.88,7.88-17.34,17.96-17.34,3.73,0,7.39,1.04,10.22,2.9l-5.04,6.91c-1.73-1.11-3.18-1.52-4.97-1.52-5.32,0-8.91,3.73-8.91,9.05,0,2.62.83,4.9,2.69,7.32h20.58Z"/>
          <path class="cls-1" d="M327.79,439.98c0,2.56-.28,4.14-1.38,4.14h-19.55v-48.35h9.26v40.06h10.29c1.11,0,1.38,1.59,1.38,4.14Z"/>
          <path class="cls-1" d="M377.94,439.98c0,2.56-.28,4.14-1.38,4.14h-50.15c-1.11,0-1.38-1.59-1.38-4.14s.28-4.14,1.38-4.14h8.5c-.28-2.42-.48-5.18-.48-8.15,0-6.63,1.17-13.12,2-16.23,2.21-.83,7.32-1.87,13.19-1.87,12.43,0,18.72,4.7,18.72,17.61v8.63h8.22c1.11,0,1.38,1.59,1.38,4.14ZM359.08,435.83v-8.63c0-7.74-1.66-9.33-9.46-9.33-1.8,0-3.59.14-5.18.35-.48,3.11-.76,6.63-.76,9.46,0,2.62.21,5.66.55,8.15h14.85Z"/>
          <path class="cls-1" d="M384.78,409.58h9.26v34.54h-17.48c-1.11,0-1.38-1.59-1.38-4.14s.28-4.14,1.38-4.14h8.22v-26.25ZM394.04,395.15v9.39h-9.26v-9.39h9.26Z"/>
          <path class="cls-1" d="M418.77,459.32v5.53h-18.1v-5.53h1.38c-.07-.48-.14-1.04-.14-1.59,0-5.32,4.42-9.46,10.02-9.46,1.87,0,4.21.62,5.59,1.45l-3.25,4.7c-.76-.41-1.45-.62-2.35-.62-2.21,0-3.8,1.66-3.8,3.94,0,.55.07,1.1.28,1.59h10.36ZM414.35,444.12h-9.26v-48.35h9.26v48.35Z"/>
        </g>
        <g>
          <path class="cls-1" d="M4.51,480.39h22v4.99H10.21v9.83h13.24v4.89h-13.24v10.18h16.29v4.99H4.51v-34.88Z"/>
          <path class="cls-1" d="M32.67,480.39h9.93l10.54,29.89h.71v-29.89h5.7v34.88h-9.73l-10.74-29.89h-.71v29.89h-5.7v-34.88Z"/>
          <path class="cls-1" d="M67.6,480.39h9.88l7.74,27.19,7.74-27.19h9.93v34.88h-5.7v-28.57h-.76l-8.25,27.14h-5.91l-8.2-27.14h-.76v28.57h-5.7v-34.88Z"/>
          <path class="cls-1" d="M116.42,480.39h11.35l8.6,34.88h-5.75l-1.83-7.43h-13.34l-1.88,7.43h-5.7l8.55-34.88ZM127.68,502.79l-4.28-17.62h-2.55l-4.28,17.62h11.1Z"/>
          <path class="cls-1" d="M158.12,480.39h11.35l8.6,34.88h-5.75l-1.83-7.43h-13.34l-1.88,7.43h-5.7l8.55-34.88ZM169.38,502.79l-4.28-17.62h-2.55l-4.28,17.62h11.1Z"/>
          <path class="cls-1" d="M183.07,480.39h5.7v29.79h13.85v5.09h-19.55v-34.88Z"/>
          <path class="cls-1" d="M203.34,498.97h15.23v5.09h-15.23v-5.09Z"/>
          <path class="cls-1" d="M223.04,514.45l.56-4.53c3,.36,7.84.87,10.49.87,4.28,0,6.31-1.94,6.31-5.55,0-2.9-1.58-3.92-6.92-5.24-7.59-1.94-10.79-4.23-10.79-10.23,0-7.03,4.63-9.98,11.61-9.98,3.21,0,8.25.71,11.05,1.22l-.46,4.63c-3.05-.36-7.94-.87-10.08-.87-4.28,0-6.42,1.58-6.42,4.58,0,3.21,1.83,3.92,7.79,5.6,7.28,2.04,9.93,3.97,9.93,9.93,0,7.64-4.79,10.95-11.66,10.95-3.31,0-8.45-.82-11.41-1.38Z"/>
          <path class="cls-1" d="M252.21,480.39h5.7v14.87h14.97v-14.87h5.75v34.88h-5.75v-15.02h-14.97v15.02h-5.7v-34.88Z"/>
          <path class="cls-1" d="M292.18,480.39h11.36l8.61,34.88h-5.75l-1.83-7.43h-13.34l-1.88,7.43h-5.7l8.55-34.88ZM303.44,502.79l-4.28-17.62h-2.55l-4.28,17.62h11.1Z"/>
          <path class="cls-1" d="M317.13,480.39h13.24c7.69,0,11.81,3.41,11.81,11.1,0,4.94-1.99,8.35-5.65,10.08l5.7,13.7h-6.26l-4.99-12.42h-8.15v12.42h-5.7v-34.88ZM330.47,497.95c4.23,0,5.86-2.8,5.86-6.42,0-3.92-1.93-6.21-5.96-6.21h-7.54v12.63h7.64Z"/>
          <path class="cls-1" d="M364.33,515.52c-.66.2-1.94.31-3.06.31-10.95,0-14.21-6.01-14.21-17.82s3.31-18.18,14.21-18.18,14.16,6.47,14.16,18.18c0,7.89-1.48,12.88-5.55,15.63l4.28,6.87-5.25,2.44-4.58-7.43ZM369.52,498c0-8.6-1.58-13.19-8.25-13.19s-8.3,4.53-8.3,13.19,1.53,12.83,8.3,12.83,8.25-3.92,8.25-12.83Z"/>
          <path class="cls-1" d="M382,480.39h5.7v34.88h-5.7v-34.88Z"/>
          <path class="cls-1" d="M401.24,480.39h11.36l8.61,34.88h-5.75l-1.83-7.43h-13.34l-1.88,7.43h-5.7l8.55-34.88ZM412.5,502.79l-4.28-17.62h-2.55l-4.28,17.62h11.1Z"/>
        </g>
      </g>
    </g>
  </g>
</svg>